<?xml version="1.0" encoding="UTF-8"?><svg xmlns="http://www.w3.org/2000/svg" viewBox="0 0 476.29 440.73"><g id="a"/><g id="b"/><g id="c"/><g id="d"/><g id="e"/><g id="f"/><g id="g"><g><ellipse id="h" cx="238.15" cy="303.23" rx="238.15" ry="137.49" style="fill:#f0f0f0;"/><ellipse id="i" cx="94.29" cy="290" rx="74.66" ry="41.34" style="fill:#e0e0e0;"/><path id="j" d="M48.65,358.2l117.01,67.53c1.06,.61,2.79,.61,3.86,0l206.9-119.46c1.06-.61,1.06-1.61,0-2.23l-117.01-67.53c-1.06-.61-2.79-.61-3.86,0L48.65,355.98c-1.06,.61-1.06,1.61,0,2.23Z" style="fill:#e0e0e0;"/><ellipse id="k" cx="372.88" cy="355.1" rx="63.83" ry="36.85" style="fill:#e0e0e0;"/><g id="l"><g><path d="M101.43,321.58c-.92,0-1.66-.74-1.66-1.64v-105.67c0-.91,.74-1.64,1.66-1.64s1.66,.74,1.66,1.64v105.67c0,.91-.74,1.64-1.66,1.64Z" style="fill:#455a64;"/><path d="M167.49,283.12c-.66,0-1.29-.39-1.54-1.04l-32.74-82.02c-.34-.84,.08-1.8,.93-2.13,.85-.34,1.82,.08,2.15,.92l32.74,82.02c.34,.84-.08,1.8-.93,2.13-.2,.08-.41,.12-.61,.12Z" style="fill:#455a64;"/><path d="M163.56,273.27c-.44,0-.88-.17-1.21-.52l-60.92-63.81-60.81,63.54c-.63,.66-1.68,.69-2.35,.06-.67-.62-.69-1.66-.06-2.32l62.02-64.8c.31-.33,.75-.51,1.2-.51h0c.46,0,.89,.19,1.2,.52l62.13,65.07c.63,.66,.6,1.7-.07,2.32-.32,.3-.73,.45-1.14,.45Z" style="fill:#455a64;"/><path d="M35.37,283.12c-.2,0-.41-.04-.61-.12-.85-.33-1.27-1.29-.93-2.13l32.74-82.02c.34-.85,1.3-1.26,2.15-.92,.85,.33,1.27,1.29,.93,2.13l-32.74,82.02c-.26,.65-.88,1.04-1.54,1.04Z" style="fill:#455a64;"/><path d="M165.24,270.73l4.33,11.31c.03,.1,.04,.19,.04,.29,0,.06,0,.13,0,.21-.04,.23-.33,.53-.65,.71-.73,.42-1.91,.42-2.63,0-.27-.15-.43-.34-.51-.53,0,0,0-.01,0-.02l-.03-.15-4.01-10.6,3.48-1.21Z" style="fill:#549c44;"/><path d="M37.63,270.73l-4.33,11.31c-.03,.1-.04,.19-.04,.29,0,.06,0,.13,0,.21,.04,.23,.33,.53,.65,.71,.73,.42,1.91,.42,2.63,0,.27-.15,.43-.34,.51-.53,0,0,0-.01,0-.02l.03-.15,4.01-10.6-3.48-1.21Z" style="fill:#549c44;"/><path d="M103.35,311.76v9.35c0,.28-.19,.56-.56,.77-.75,.43-1.96,.43-2.71,0-.37-.21-.56-.49-.56-.77v-9.35c1.28-.63,2.55-.63,3.83,0Z" style="fill:#549c44;"/></g><g><path d="M163.94,203.91c0-2.48-2.2-5.12-6.83-8.09-8.57-5.5-27.72-16.55-39.7-23.12-.02-.09-.1-.1-.1-.1-9.23-5.54-17.83-31.93-24.22-51.99-2.18-6.83-4.84-10.7-8-12.52-.75-.43-3.51-1.94-4.13-2.31-6.27-3.72-14.49,.75-24.73,6.3-9.44,5.11-16.81,11.66-18.29,29.02-.9,10.57-.04,30.78,2.13,46.09h0c3.14,25.57,7,25.61,12.59,29.89,9.63,7.37,31.33,17.72,40.48,21.28,16.59,6.46,30.14-3.5,40.24-8.44,10.1-4.94,22.52-12.64,26.77-15.7,2.53-1.82,3.84-3.65,3.81-5.59-.01-.77,0-3.92,0-4.72Z" style="fill:#549c44;"/><path d="M163.94,203.91c0-2.48-2.2-5.12-6.83-8.09-8.57-5.5-27.72-16.55-39.7-23.12-.02-.09-.1-.1-.1-.1-9.23-5.54-17.83-31.93-24.22-51.99-2.18-6.83-4.84-10.7-8-12.52-.75-.43-3.51-1.94-4.13-2.31-6.27-3.72-14.49,.75-24.73,6.3-9.44,5.11-16.81,11.66-18.29,29.02-.9,10.57-.04,30.78,2.13,46.09h0c3.14,25.57,7,25.61,12.59,29.89,9.63,7.37,31.33,17.72,40.48,21.28,16.59,6.46,30.14-3.5,40.24-8.44,10.1-4.94,22.52-12.64,26.77-15.7,2.53-1.82,3.84-3.65,3.81-5.59-.01-.77,0-3.92,0-4.72Z" style="opacity:.25;"/><path d="M84.72,107.87c-6.21-3.22-14.28,1.16-24.26,6.57-6.39,3.47-11.84,7.58-15.15,15.27l-4.21-2.41c3.31-7.66,8.75-11.77,15.12-15.23,10.25-5.55,18.47-10.01,24.74-6.3,.55,.32,2.72,1.52,3.76,2.1Z" style="fill:#549c44;"/><g><path d="M157.11,195.81c-5.56-3.57-5.68-4.48-39.98-23.29,.09,.03,.14,.05,.16,.07-9.22-5.56-17.82-31.93-24.21-51.98-6.48-20.36-17.3-14.46-32.63-6.16-9.44,5.11-16.81,11.66-18.29,29.02-1.48,17.3,1.76,60.41,7.74,65.62,6.53,7.15,32.74,20.43,43.21,24.51,16.59,6.46,30.14-3.5,40.24-8.44,10.1-4.94,22.52-12.64,26.77-15.7,5.75-4.13,5.22-8.36-3.02-13.65Z" style="fill:#549c44;"/><path d="M117.29,172.58h0Z" style="fill:#549c44;"/></g><g style="opacity:.1;"><path d="M60.46,114.45c15.33-8.31,26.15-14.21,32.63,6.16,6.39,20.06,14.99,46.45,24.22,51.99,0,0-15.82-.01-38.75,12.24-23.84,12.74-27.48,25.2-28.58,24.31-6.03-4.95-9.29-48.31-7.81-65.68,1.48-17.36,8.86-23.91,18.29-29.02Z"/></g></g></g><g id="m"><g><polygon points="167.69 289.8 62.67 229.17 238.07 127.95 343.09 188.59 167.69 289.8" style="fill:#455a64;"/><polygon points="62.67 229.17 62.67 350.43 68.2 353.63 68.2 270.66 162.16 324.91 162.16 407.88 167.69 411.07 167.69 289.8 62.67 229.17" style="fill:#263238;"/><polygon points="68.2 353.63 73.72 350.43 73.72 273.85 68.2 270.66 68.2 353.63"/><polygon points="167.69 411.07 173.21 407.88 173.21 324.91 337.56 230.07 337.56 313.04 343.09 309.85 343.09 188.59 167.69 289.8 167.69 411.07" style="fill:#37474f;"/><polygon points="337.56 313.04 332.04 309.85 332.04 233.26 337.56 230.07 337.56 313.04" style="fill:#263238;"/></g><g style="opacity:.2;"><path d="M158.16,265.88c-5.36,3.1-5.36,8.11,0,11.21,5.36,3.1,14.05,3.1,19.42,0,5.36-3.1,5.36-8.11,0-11.21-5.36-3.1-14.05-3.1-19.42,0Z"/></g><g style="opacity:.2;"><path d="M80.61,229.1l38.58,22.27c.6,.35,1.57,.35,2.17,0l28.39-16.39c.6-.35,.6-.91,0-1.25l-38.58-22.27c-.6-.35-1.57-.35-2.17,0l-28.39,16.39c-.6,.35-.6,.91,0,1.25Z"/></g><g style="opacity:.2;"><path d="M80.61,233.08l38.58,22.27c.6,.35,1.57,.35,2.17,0l28.39-16.39c.6-.35,.6-.91,0-1.25l-38.58-22.27c-.6-.35-1.57-.35-2.17,0l-28.39,16.39c-.6,.35-.6,.91,0,1.25Z"/></g><g><path d="M80.61,231.78l38.58,22.27c.6,.35,1.57,.35,2.17,0l28.39-16.39c.6-.35,.6-.91,0-1.25l-38.58-22.27c-.6-.35-1.57-.35-2.17,0l-28.39,16.39c-.6,.35-.6,.91,0,1.25Z" style="fill:#ebebeb;"/><path d="M109,214.14l-26.96,15.57,37.15,21.45c.6,.35,1.57,.35,2.17,0l26.96-15.57-37.15-21.45c-.6-.35-1.57-.35-2.17,0Z" style="fill:#e0e0e0;"/><path d="M80.61,227.86l38.58,22.27c.6,.35,1.57,.35,2.17,0l28.39-16.39c.6-.35,.6-.91,0-1.25l-38.58-22.27c-.6-.35-1.57-.35-2.17,0l-28.39,16.39c-.6,.35-.6,.91,0,1.25Z" style="fill:#fafafa;"/></g><g><g style="opacity:.2;"><path d="M124.17,209.31l20.85,12.07c.71,.41,1.86,.41,2.57,0l67.27-38.87c.71-.41,.71-1.07,0-1.48l-20.85-12.07c-.71-.41-1.86-.41-2.57,0l-67.27,38.87c-.71,.41-.71,1.07,0,1.48Z"/></g><path d="M124.87,206.47v-.47c0-.75,.53-1.67,1.18-2.04l61.78-35.7c.65-.38,1.71-.38,2.36,0l19.14,11.09c.65,.38,1.18,1.29,1.18,2.04v.47c0,.75-.53,1.67-1.18,2.04l-61.78,35.7c-.65,.38-1.71,.38-2.36,0l-19.15-11.08c-.65-.38-1.18-1.29-1.18-2.04Z" style="fill:#e0e0e0;"/><path d="M126.05,205.32l19.15,11.08c.65,.38,1.71,.38,2.36,0l61.78-35.7c.65-.38,.65-.98,0-1.36l-19.14-11.09c-.65-.38-1.71-.38-2.36,0l-61.78,35.7c-.65,.38-.65,.98,0,1.36Z" style="fill:#fafafa;"/></g><g><g><path d="M176.72,272.28c4.74-4.83,7.52-16.9,2.9-20.73h-23.5c-4.62,3.83-1.84,15.89,2.89,20.72,.04,.05,.09,.09,.13,.13,.05,.05,.11,.11,.16,.16,.13,.13,.28,.26,.43,.38,.04,.03,.08,.06,.11,.09,.12,.09,.23,.18,.36,.27,.2,.14,.41,.28,.61,.39,3.89,2.25,10.21,2.25,14.1,0h0c.21-.12,.41-.25,.62-.39,.12-.08,.22-.17,.33-.25,.05-.04,.09-.07,.14-.11,.15-.12,.28-.24,.41-.37,.06-.06,.13-.12,.19-.18,.04-.04,.08-.07,.11-.11Z" style="fill:#ebebeb;"/><path d="M158.16,250.01c-5.36,3.1-5.36,8.11,0,11.21,5.36,3.1,14.05,3.1,19.42,0,5.36-3.1,5.36-8.11,0-11.21s-14.05-3.1-19.42,0Z" style="fill:#fafafa;"/><path d="M161.96,252.21c-3.26,1.88-3.26,4.94,0,6.82,3.26,1.88,8.55,1.88,11.81,0,3.26-1.88,3.26-4.94,0-6.82-3.26-1.88-8.55-1.88-11.81,0Z" style="fill:#ebebeb;"/><path d="M173.78,255.44c-3.26-1.88-8.55-1.88-11.81,0-.91,.52-1.55,1.14-1.95,1.79,.4,.65,1.05,1.27,1.95,1.79,3.26,1.88,8.55,1.88,11.81,0,.91-.52,1.55-1.14,1.95-1.79-.4-.65-1.05-1.27-1.95-1.79Z" style="fill:#e0e0e0;"/></g><path d="M162.68,257.24s-2.3-2.19-4.27-5.68-2.34-8.16-1.32-8.74c1.02-.58,5.17,4.09,5.17,4.09,0,0-.61-2.85-.44-5.96,.17-3.11,.93-5.93,1.82-6.5,.89-.57,2.88,3.35,3.74,6.19,.85,2.84,1.36,5.18,1.36,5.18,0,0,.58-3.84,1.53-6.54,1.04-2.95,1.98-3.62,2.7-3.32,.73,.29,1.21,1.67,1.42,5.6,.15,2.75-.18,5.62-.18,5.62,0,0,1.46-1.61,3.09-3.17,1.78-1.71,2.55-1.95,3.06-1.62,.51,.33,.65,2.99-2.11,7.99-2.44,4.41-5.22,6.87-5.22,6.87,0,0-3.83,2.47-10.36,0Z" style="fill:#549c44;"/></g><g><g><g><path d="M265.12,200.1l4.97-60.23c.15-1.87-.96-4.1-2.48-4.99-1.53-.88-4.08-.83-5.71,.11l-65.96,38.08c-1.63,.94-3.07,3.22-3.23,5.09l-4.97,60.23c-.15,1.87,.96,4.1,2.48,4.99,1.53,.88,4.08,.83,5.71-.11l65.96-38.08c1.63-.94,3.07-3.22,3.23-5.09Z" style="fill:#549c44;"/><path d="M265.12,200.1l4.97-60.23c.15-1.87-.96-4.1-2.48-4.99-1.53-.88-4.08-.83-5.71,.11l-65.96,38.08c-1.63,.94-3.07,3.22-3.23,5.09l-4.97,60.23c-.15,1.87,.96,4.1,2.48,4.99,1.53,.88,4.08,.83,5.71-.11l65.96-38.08c1.63-.94,3.07-3.22,3.23-5.09Z" style="fill:#fff; opacity:.5;"/></g><g><path d="M265.12,200.1l4.97-60.23c.15-1.87-.96-4.1-2.48-4.99-1.53-.88-4.08-.83-5.71,.11l-65.96,38.08c-.8,.46-1.56,1.26-2.14,2.16l10.25,5.92v57.44l57.85-33.4c1.63-.94,3.07-3.22,3.23-5.09Z" style="fill:#549c44;"/><path d="M265.12,200.1l4.97-60.23c.15-1.87-.96-4.1-2.48-4.99-1.53-.88-4.08-.83-5.71,.11l-65.96,38.08c-.8,.46-1.56,1.26-2.14,2.16l10.25,5.92v57.44l57.85-33.4c1.63-.94,3.07-3.22,3.23-5.09Z" style="fill:#fff; opacity:.8;"/></g><g><path d="M193.26,241.59l4.97-60.23c.15-1.87,1.6-4.15,3.23-5.09l65.96-38.08c1.63-.94,2.82-.18,2.67,1.69l-4.97,60.23c-.15,1.87-1.6,4.15-3.23,5.09l-65.96,38.08c-1.63,.94-2.82,.18-2.67-1.69Z" style="fill:#549c44;"/><path d="M193.26,241.59l4.97-60.23c.15-1.87,1.6-4.15,3.23-5.09l65.96-38.08c1.63-.94,2.82-.18,2.67,1.69l-4.97,60.23c-.15,1.87-1.6,4.15-3.23,5.09l-65.96,38.08c-1.63,.94-2.82,.18-2.67-1.69Z" style="fill:#fff; opacity:.65;"/></g><path d="M227.31,193.26c.25-3.08,2.42-6.72,4.83-8.11s4.16-.03,3.91,3.05c-.25,3.08-2.42,6.72-4.83,8.11-2.41,1.4-4.16,.03-3.91-3.05Z" style="fill:#549c44;"/></g><g><polygon points="228.86 211.47 245.08 202.05 242.31 200.45 226.11 209.88 228.86 211.47" style="fill:#549c44;"/><g style="opacity:.85;"><polygon points="228.86 211.47 245.08 202.05 242.31 200.45 226.11 209.88 228.86 211.47" style="fill:#fff;"/></g><path d="M252.6,229.7l-19.74,11.4c-.35,.2-.82,.3-1.27,.29-.38-.01-.78-.11-1.08-.27-.01,0-.01-.01-.03-.01l-8.69-5.02s-.03-.01-.04-.03c-.64-.38-1.13-1.27-1.13-2.01v-.46c0-.75,.52-1.06,1.17-.68l5.25,3.02,1.17,.68-.26-1.33-1.85-25.38,2.75,1.6,16.22-9.42,8.44,25.63c.14,.73-.27,1.65-.93,2.01Z" style="fill:#549c44;"/><g style="opacity:.5;"><path d="M252.6,229.7l-19.74,11.4c-.35,.2-.82,.3-1.27,.29-.38-.01-.78-.11-1.08-.27-.01,0-.01-.01-.03-.01l-8.69-5.02s-.03-.01-.04-.03c-.64-.38-1.13-1.27-1.13-2.01v-.46c0-.75,.52-1.06,1.17-.68l5.25,3.02,1.17,.68-.26-1.33-1.85-25.38,2.75,1.6,16.22-9.42,8.44,25.63c.14,.73-.27,1.65-.93,2.01Z" style="fill:#fff;"/></g><polygon points="220.99 232.8 227.72 228.91 229.09 237.97 220.99 232.8" style="fill:#549c44;"/><g style="opacity:.25;"><polygon points="220.99 232.8 227.72 228.91 229.09 237.97 220.99 232.8"/></g><path d="M228.86,211.47l-2.75-1.6,1.85,25.38c.15,.73-.27,1.03-.91,.65l-5.25-3.02c-.65-.38-1.17-.07-1.17,.68v.46c0,.75,.49,1.63,1.13,2.01,.01,.01,.03,.01,.04,.03l8.69,5.02s.01,.01,.03,.01c.3,.16,.69,.26,1.08,.27l-2.73-29.91Z" style="fill:#549c44;"/><g style="opacity:.25;"><path d="M228.86,211.47l-2.75-1.6,1.85,25.38c.15,.73-.27,1.03-.91,.65l-5.25-3.02c-.65-.38-1.17-.07-1.17,.68v.46c0,.75,.49,1.63,1.13,2.01,.01,.01,.03,.01,.04,.03l8.69,5.02s.01,.01,.03,.01c.3,.16,.69,.26,1.08,.27l-2.73-29.91Z" style="fill:#fff;"/></g></g></g><g id="n"><polygon id="o" points="155 228.12 158.04 229.87 182.02 215.83 184.66 212.72 179.15 214.18 155 228.12" style="opacity:.2;"/><g><g><path d="M179.37,212.04l5.11-1c.15-.03,.25,.15,.15,.26l-3.47,3.92-1.79-3.18Z" style="fill:#ffa8a7;"/><path d="M184.62,211.3c.1-.11,0-.29-.15-.26l-1,.2h0c.28,.17,.44,.49,.41,.82v.09l.73-.84Z" style="fill:#263238;"/><path d="M162.11,226.15l.42-.24,.51-.29,18.13-10.4c.19-.56,.1-1.16-.14-1.69-.36-.81-1.07-1.45-1.65-1.49l-18.11,10.39-.96,.55c.64-.32,2.46,2.83,1.82,3.16Z" style="fill:#549c44;"/><path d="M163.7,225.24l.93-.54c.28-.15,.12-.82-.2-1.52-.43-.93-1.26-1.83-1.63-1.64l-.69,.39-.24,.15c.37-.19,1.2,.71,1.63,1.64,.31,.67,.46,1.32,.23,1.5h0s-.01,.01-.02,.02Z" style="fill:#ebebeb;"/><path d="M163.94,225.11c.64-.34-1.19-3.5-1.83-3.16l-.93,.53c.64-.34,2.47,2.82,1.83,3.16l.94-.53Z" style="fill:#549c44;"/><path d="M162.11,226.15l.92-.53c.63-.33-1.11-3.39-1.78-3.19-.01,0-.03,0-.04,.01l-.93,.54c.64-.32,2.46,2.83,1.82,3.16Z" style="fill:#ebebeb;"/><path d="M184.65,211.13l-.17-.09-3.71,2.03-19.17,11c-.04-.06-.07-.06-.09-.02,.54,.85,.96,1.92,.6,2.11l.42-.24,.51-.29,18.13-10.4h0l3.47-3.93c.05-.05,.05-.12,.02-.17Z" style="opacity:.15;"/><path d="M158.19,228.39l3.92-2.24c.27-.14,.12-.81-.19-1.51-.42-.93-1.26-1.84-1.63-1.65h0l-3.93,2.25c-.78,.45-.06,2.14,.81,2.9,.32,.29,.69,.41,1.03,.25Z" style="fill:#f28f8f;"/></g><path d="M158.43,227.18c-.22-.88-.94-1.75-1.6-1.93-.24-.07-.44-.03-.59,.08-.59,.55,.1,2.1,.92,2.82,.32,.28,.67,.41,1.01,.26,.29-.17,.41-.62,.25-1.22Z" style="opacity:.1;"/></g></g></g><g id="p"><g><path d="M297.21,41.51c-.18-.1-.39-.16-.63-.16h-11.42l-4.71,2.72v16.33l4.71-2.72,4.08-4.71v11.53l4.71-2.72,12.36-13.3c.55-.63,.32-1.53-.32-1.9-.18-.1-8.15-4.7-8.79-5.07Z" style="fill:#455a64;"/><path d="M289.24,64.51l4.71-2.72,12.36-13.3c.7-.81,.13-2.06-.94-2.06h-11.42l-4.71,2.72v15.37Z" style="fill:#37474f;"/><path d="M293.99,32.94c0-2.89-2.03-6.4-4.53-7.85h0c-2.5-1.44-6.56-1.44-9.06,0l-34.41,19.7c-2.5,1.44-4.53,4.96-4.53,7.85v37.15c0,2.89,2.03,6.4,4.53,7.85h0c2.5,1.44,6.56,1.44,9.06,0l34.83-20.01c4.07-2.32,4.11-4.65,4.11-7.54V32.94Z" style="fill:#37474f;"/><path d="M241.46,89.79c0,2.89,2.03,6.4,4.53,7.85h0c2.26,1.3,5.78,1.43,8.29,.37-2.13,.81-3.76-.41-3.76-3V57.87c0-1.44,.51-3.05,1.33-4.46l-9.06-5.22c-.82,1.42-1.33,3.02-1.33,4.46v37.15Z" style="fill:#263238;"/><path d="M293.84,31.65c-.53-1.92-2.28-2.54-4.37-1.33l-34.42,19.71c-1.25,.72-2.39,1.94-3.19,3.38l-9.05-5.22c.82-1.44,1.94-2.66,3.19-3.38l34.4-19.71c2.51-1.44,6.57-1.44,9.07,0h0c2.13,1.22,3.93,3.97,4.37,6.55Z" style="fill:#455a64;"/></g><g><polygon points="276.77 77.76 268.65 82.45 268.65 49.95 276.77 45.26 276.77 77.76" style="fill:#d8285c;"/><polygon points="284.89 51.41 284.89 62.24 260.52 76.31 260.52 65.48 284.89 51.41" style="fill:#d8285c;"/></g></g><g id="q"><path d="M367.5,78.39c8,.22,10.27,3.43,15.09,10.32s21.22,32.97,21.22,32.97l23.23,8.92-3.06,13.55s-31.05-5.26-33.08-6.45c-2.03-1.19-17.16-26.1-17.16-26.1l-6.24-33.21Z" style="fill:#e6e6e6;"/><path d="M361.37,78.61c7.56-1.89,10.9,2.33,13.42,6.95,11.45,21.01,16.11,147.04,16.11,147.04,0,0-25.54,10.2-44.49-1.77l14.96-152.22Z" style="fill:#f0f0f0;"/><g><g><path d="M385.72,295.18l-4.77,18.2s-5.51,3.25-10.27,.04c-3.76-2.54-3.54-5.55-3.54-5.55l.22-2.74,.54-21.15,17.81,11.2Z" style="fill:#b16668;"/><g><path d="M362.72,317.75c-1.3,2.91-2.05,11.41-2.05,11.41,0,0,.79,3.12,5.15,5.9l4.23-11.24-7.33-6.07Z" style="fill:#263238;"/><polygon points="365.82 335.06 376.81 333.54 380.98 324.8 368.26 328.57 365.82 335.06"/><path d="M381.78,310.22l.58-2.22c1.67,.1,1.52,3.4,1.65,4.36,.37,2.74,.65,5.5,1.07,8.23,.47,3.06,1.11,6.03,2.11,8.93,.95,2.77,1.58,5.72,3.26,8.17,1.66,2.42,4.67,3.9,7.06,5.55,.6,.41,1.23,.86,1.53,1.53,.55,1.22-.22,2.63-1.17,3.56-1.63,1.61-3.84,2.54-6.1,2.94-2.26,.39-4.57,.28-6.85,0-3.96-.48-7.99-1.83-11.24-4.16-3.22-2.3-3.92-6.85-4.44-10.53-.42-2.99-.16-6.49-1.4-9.31-1.25-2.84-4.79-6.5-5.13-9.54-.19-1.67,.19-4.74,1.59-7.44,1.28-2.47,2.22-5.62,3.06-5.17l-.15,1.8c0-.14,.83,3.46,5.98,4.74,2.44,.61,7.04,.59,8.58-1.46Z" style="fill:#263238;"/></g></g><path d="M373.95,329.92c.14,3.37-.04,4.75,.04,6.27,.14,2.78,.88,4.71,1.51,7.41,.28,1.19,.64,2.04,1.15,3.23,.51,1.19,1.49,2.82,.92,3.98-.27,.55-.69,1-1.14,1.41-2.02,1.81-4.8,2.65-7.5,2.54-1.43-.06-2.88-.38-4.08-1.17-2.41-1.58-3.36-4.46-4.65-6.89-1.41-2.63-.59-4.02-.82-6.89-.26-3.21-.81-8.24-1.49-11.39,5.17-5.94,9.55-.15,16.07,1.5Z" style="fill:#b16668;"/><path d="M381.93,163.66c7.81,27.21,21.03,73.48,17.3,87.88-2.8,10.79-14.96,50.19-14.96,50.19-4.71,.67-14.33,1.72-18.09-6.54-.95-13.39-4.25-104.31-4.25-104.31l20-27.22Z" style="fill:#549c44;"/><path d="M381.93,163.66c7.81,27.21,21.03,73.48,17.3,87.88-2.8,10.79-14.96,50.19-14.96,50.19-4.71,.67-14.33,1.72-18.09-6.54-.95-13.39-4.25-104.31-4.25-104.31l20-27.22Z" style="fill:#fff; opacity:.4;"/><path d="M361.93,190.88s7.28-6.72,13.79-15.08c0,0-1,6.44-9.89,15.34,0,0,14.9,57.39,14.82,66.54s-4.98,42.03-4.98,42.03l-13.73-108.84Z" style="opacity:.25;"/><path d="M381.93,163.66c-6.37,13.2-8.87,18.49-20,27.22,0,0,13.6,56.56,14.21,67.53,1,18.26-1.35,59.11-2.19,71.51-2.11,2.76-12.39,3.23-15.63,.88-1.48-5.73-6.46-25.94-8.79-44.06-1.72-13.39,.48-25.37,.76-28.88-7.21-18.39-23.4-45.23-29.32-64.46-1.21-3.94-1.51-7.13-1.83-10.16-1.31-12.19,3.67-21.51,6.6-28.02l56.18,8.43" style="fill:#549c44;"/><g style="opacity:.5;"><path d="M381.93,163.66c-6.37,13.2-8.87,18.49-20,27.22,0,0,13.6,56.56,14.21,67.53,1,18.26-1.35,59.11-2.19,71.51-2.11,2.76-12.39,3.23-15.63,.88-1.48-5.73-6.46-25.94-8.79-44.06-1.72-13.39,.48-25.37,.76-28.88-7.21-18.39-23.4-45.23-29.32-64.46-1.21-3.94-1.51-7.13-1.83-10.16-1.31-12.19,3.67-21.51,6.6-28.02l56.18,8.43" style="fill:#fff;"/></g><g><path d="M356.74,349.05c-.79,3.09-.07,11.57-.07,11.57,0,0,1.31,2.94,6.07,4.93l2.24-11.78-8.24-4.72Z" style="fill:#263238;"/><polygon points="362.73 365.55 373.28 362.19 375.9 352.87 364.03 358.75 362.73 365.55"/><path d="M373.91,338.4l.07-2.21c1.42,.71,4.47,12.24,8.65,20.17,3.82,7.24,11.48,11.33,13.95,14.48,3.31,4.22-3.24,9.58-13.64,7.26-5.17-1.15-12.97-4.53-15.07-8.04-2.09-3.51-2.76-9.93-4.47-12.51-1.71-2.58-5.82-5.57-6.67-8.51-.47-1.61-.82-5.18,.09-8.07,.84-2.65,.8-5.36,2.12-5.59l.21,2.08c.69,1.43,3.39,3.07,8.65,3.4,2.5,.16,4.93-.2,6.1-2.48Z" style="fill:#37474f;"/></g></g><g><path d="M355.49,55.85l-5.25,17.75c-14.6,0-23.62-14.22-23.62-28.82h0c0-14.66,9.34-26.92,24-26.92h4.76c14.66,0,26.55,9.74,26.55,24.4h0c0,9.55-11.84,13.59-26.44,13.59Z" style="fill:#263238;"/><path d="M384.67,28.69c1.07-1.84,1.72-3.98,1.55-6.1s-1.25-4.22-3.04-5.37c-2.73-1.75-6.51-.93-9.06,1.09-.2-1.89-1.16-3.68-2.62-4.9-1.46-1.21-3.4-1.83-5.29-1.69-2.43,.18-4.58,1.54-6.69,2.76-2.4,1.4-7.39,3.03-11.37,3.5l4.46,1.76c-1.13,1.85-1.62,4.29-.78,6.39,.18,.44,.43,.84,.7,1.24,2.95,4.41,7.1,8.01,11.88,10.32,4.78,2.31,10.18,3.32,15.47,2.9,1.48-.12,3.01-.37,4.24-1.2,.76-.51,1.37-1.23,1.87-2,.9-1.4,1.47-3.07,1.31-4.73s-1.12-3.28-2.63-3.98Z" style="fill:#263238;"/><path d="M344.09,80.68l-9.57,1.02c-6.35,1.55-9.22,4.35-9.87,9.98-.3,2.62-1.89,9.61,.33,18.35,2.01,7.92,7.37,27.32,7.37,27.32,0,0-6.94,17.45-10.23,26.31,22.58,14.73,50.44,8.91,59.81,0-.79-8.43-3.77-16.27-4.44-23.79,0,0,.49-11.73,1.42-16.83,7.14-7.8,6.23-15.25,3.03-21.26-5.92-11.1-14.85-20.86-17.73-20.84l-20.1-.25Z" style="fill:#455a64;"/><path d="M361.24,74.4c2.87,.7,5.1,1.86,6.26,3.99,1.16,2.13,10.21,16.39,10.21,16.39,0,0-7.3-9.6-12.8-12.51-2.24-1.19-3.66-1.22-3.66-1.22v-6.65Z" style="fill:#e0e0e0;"/><path d="M344.09,80.68s9.98,20.86,11.77,34.92c1.79,14.06-2.04,62.07-2.04,77.3,0,18.36,.06,48.66,.06,48.66,0,0-11.41,0-19.25-2.23-5.73-1.63-12.51-4.57-16.63-9.48,0,0-1.11-37.58,1.24-55.47,2.23-16.98,11.29-37.94,11.29-37.94l-11.6-44.22s.54-7.6,7.69-9.73c6.81-2.02,17.47-1.8,17.47-1.8Z" style="fill:#fafafa;"/><path d="M334.67,89.81l-11.83,17.33,7.69,29.31s-7.14,15.07-9.77,29.66c7.13-20.18,13.58-26.23,13.58-26.23l-4.19-17.06s1.48-5.37,3.52-14.53c2.04-9.16,1.72-14.48,1.01-18.48Z" style="fill:#ebebeb;"/><path d="M341.12,106.15c.04-.87-.08-2.75-.23-5.13-.74-11.61-1.08-22.11,2.84-22.96l.34,1.6c-2.87,.62-1.91,15.61-1.56,21.25,.15,2.43,.28,4.34,.23,5.3l-1.64-.07Z" style="fill:#549c44;"/><path d="M344.09,74.4c-1.56,.19-2.6,.56-3.54,2.16-.94,1.6-2.91,4.29-2.91,4.29,0,0-.07,10.66,1,13.43,.92,2.4,12.22,11.29,12.22,11.29,0,0-1.09,9.41-1.19,12.7-.09,3.29,5.71,15.21,6.42,21.6,0,0,1.2-15.52,.25-22.73-1.65-12.55-9.48-31.31-12.25-36.46v-6.29Z" style="fill:#ebebeb;"/><g><path d="M338.78,144.97s-.09,0-.14,0l.04-1.15c1.02,.03,2.42-.53,3.76-1.4-1.25-.85-2.36-1.85-3.13-2.83-1.85-2.39-5.89-19.44-4.64-23.41,1.05-3.33,4.32-10.67,7.23-10.8,.02,0,.05,0,.08,0,2.91,0,6.73,6.94,8.04,10.15,1.58,3.85-1,21.19-2.64,23.72-.67,1.04-1.7,2.14-2.87,3.09,1.4,.75,2.81,1.2,3.86,1.07l.14,1.14c-1.41,.17-3.27-.46-5.01-1.46-1.6,1.11-3.33,1.88-4.73,1.88Zm3.21-38.44h-.04c-1.71,.07-4.78,5.53-6.18,10-1.15,3.65,2.74,20.15,4.45,22.37,.75,.97,1.94,1.99,3.23,2.82,1.21-.93,2.31-2.05,2.97-3.08,1.52-2.35,3.99-19.12,2.54-22.66-1.76-4.3-5.25-9.43-6.97-9.43Z" style="fill:#455a64;"/><path d="M350.13,143.91c.04,.93-.68,1.71-1.61,1.75s-1.71-.68-1.75-1.61c-.04-.93,.68-1.71,1.61-1.75s1.71,.68,1.75,1.61Z" style="fill:#263238;"/><path d="M340.34,144.32c.04,.93-.68,1.71-1.61,1.75-.93,.04-1.71-.68-1.75-1.61s.68-1.71,1.61-1.75,1.71,.68,1.75,1.61Z" style="fill:#263238;"/><path d="M350.31,123.04l-.97-.06c-.21-.01-.36-.2-.35-.4,.2-3.2,.09-5.56-.3-6.5-1.69-4.13-5.2-9.32-6.73-9.26-1.53,.06-4.59,5.53-5.92,9.8-.3,.97-.21,3.33,.26,6.5,.03,.2-.11,.4-.31,.43l-.96,.15c-.21,.03-.4-.12-.43-.33-.53-3.56-.59-6.01-.2-7.27,.72-2.29,4.09-10.85,7.49-11,3.4-.14,7.49,8.11,8.4,10.32,.5,1.22,.65,3.67,.42,7.26-.01,.21-.19,.37-.4,.36Z" style="fill:#549c44;"/></g><path d="M310.88,210.2c1.75,1.64,2.7,3.83,4.48,7.06s10.62,3.55,11.33-5.56c.53-6.86-1.87-9.18-6.68-14.52-5.06-5.61-7.04-6.54-6.77-11.75,.13-2.56,3.99-39.77,3.99-39.77l12.74-35.06s4.6-16.4,2.29-27.81c0,0-8.25-.67-14.08,5.15-6.81,6.8-14.52,40.42-16.22,47.21-1.34,5.36-3.64,13.66-3.17,26.48,.4,10.91,.45,33.71,1.9,38.74,1.45,5.03,5.53,5.45,10.21,9.84Z" style="fill:#b16668;"/><path d="M332.83,81.27s-8.77-.55-13.9,3.65c-5.13,4.2-8.32,15.94-12.09,27.67-3.77,11.74-7.13,23.15-8.37,31.38-1.04,6.88,1,43.2,1,43.2,0,0,5.84,2.12,13.76-1.75l4.9-39.77,14.7-39.88s4.55-11.36,0-24.51Z" style="fill:#f0f0f0;"/><g><path d="M367,31.26c6.68,.69,12.26,7.79,11.88,23.9-.32,13.66-4.74,17.03-6.96,18-2.22,.97-6.51,1.13-10.68,.43v7.45s4.8,10.58,2.76,14.35c-11.42-4.68-19.92-14.72-19.92-14.72v-16.86s-2.81,3.34-7.41,.28c-4.6-3.06-4.78-10.62-2.1-13.33,2.67-2.72,8.44-1.86,9.52,1.9,0,0,4.01-.1,11.37-5.35,7.29-5.2,10.35-11.61,11.54-16.05Z" style="fill:#b16668;"/><path d="M360.34,49.93c.05,1.04-.72,1.93-1.72,1.97-1,.05-1.86-.76-1.91-1.8-.05-1.04,.72-1.93,1.72-1.97,1-.05,1.86,.76,1.91,1.8Z" style="fill:#263238;"/><path d="M362.26,62.72l5.42,1.73c-.45,1.55-2.03,2.42-3.52,1.94-1.5-.48-2.34-2.12-1.9-3.67Z" style="fill:#9a4a4d;"/><path d="M376.45,45.73l-3.68-2.55c.67-1.05,2.04-1.33,3.06-.63,1.02,.7,1.3,2.13,.62,3.18Z" style="fill:#263238;"/><path d="M375.1,49.57c.05,1.04-.72,1.93-1.72,1.97-1,.05-1.86-.76-1.91-1.8-.05-1.04,.72-1.93,1.72-1.97,1-.05,1.86,.76,1.91,1.8Z" style="fill:#263238;"/><polygon points="365.91 48.53 366.2 59.48 371.96 57.69 365.91 48.53" style="fill:#9a4a4d;"/><path d="M361.24,73.6c-4.39-.58-13.43-3.92-14.83-7.49,0,0,.47,2.24,3.17,4.56,2.7,2.31,11.67,4.92,11.67,4.92v-1.99Z" style="fill:#9a4a4d;"/></g></g><g><polygon points="434.7 117.19 391.22 137.88 379.26 189.61 380.23 190.64 421.56 169.85 435.67 118.22 434.7 117.19" style="fill:#549c44;"/><polygon points="392.19 138.91 380.23 190.64 379.26 189.61 391.22 137.88 392.19 138.91" style="opacity:.35;"/><polygon points="435.67 118.22 392.19 138.91 380.23 190.64 421.56 169.85 435.67 118.22" style="opacity:.25;"/><g style="opacity:.2;"><path d="M415.09,159.34c.4,1.02,3.73,3.25,8.56,2.85l.82-2.99-9.37,.13Z"/></g><g style="opacity:.1;"><path d="M422.57,128.82s.16-.78,.36-1.73c.2-.96-2.35-.45-5.7,1.12l-6.41,3.02c-3.35,1.58-6.22,3.63-6.42,4.59l-.36,1.73,18.52-8.74Z"/></g><path d="M425.21,120.71c.13-.6-.91-.53-2.31,.16l-2.54,1.24s.76-3.75-4.87-1.3c-5.63,2.45-6.86,6.78-6.86,6.78,0,0-1.21,.6-2.71,1.34-1.5,.74-2.85,1.84-3.03,2.44l-.32,1.1,22.39-10.66s.11-.52,.24-1.11Z" style="fill:#37474f;"/><path d="M422.83,124.3c-2.05,.93-2.9,1.39-3.21,2.86-.35,1.69-.49,2.9-.49,2.9l-9.91,4.73s.48-2.14,.63-2.97c.15-.83-.18-1.24-1.76-.48l-.62-1.73,16.02-7.46-.65,2.16Z" style="fill:#37474f;"/><path d="M423.17,128.85s.16-.78,.36-1.73c.2-.96-2.35-.45-5.7,1.12l-6.41,3.02c-3.35,1.58-6.22,3.64-6.42,4.59l-.36,1.73,18.52-8.74Z" style="fill:#37474f;"/><path d="M430.83,135.92s-1.54,5.67-1.94,7.11-7.53,4.72-11.09,5.16c-6.82,.85-7.59,2.33-5.95,7.17,1.51,4.47,5.95,6.15,12.11,5.42,2.88-.34,6.88-2.9,8.44-7.37,2-5.7,.92-11.8,1.71-15.13,.79-3.33-1.54-4.36-3.27-2.37Z" style="fill:#b16668;"/></g></g><g id="r"><g id="s"><polygon points="39.1 77.39 41.13 78.57 91.89 49.26 89.86 48.09 39.1 77.39" style="fill:#455a64;"/><polygon points="89.86 48.09 41.13 76.22 41.13 33.99 89.86 5.86 89.86 48.09" style="fill:#549c44;"/><g style="opacity:.8;"><polygon points="89.86 48.09 41.13 76.22 41.13 33.99 89.86 5.86 89.86 48.09" style="fill:#fff;"/></g><path d="M93.92,1.17l-54.81,31.65v49.26l54.81-31.65V1.17Zm-2.03,48.09l-50.75,29.3V33.99L91.89,4.69V49.26Z" style="fill:#37474f;"/><polygon points="91.89 49.26 89.86 48.09 89.86 5.86 91.89 4.69 91.89 49.26" style="fill:#263238;"/><polygon points="93.92 1.17 91.89 0 37.07 31.65 39.1 32.82 93.92 1.17" style="fill:#455a64;"/><polygon points="37.07 31.65 39.1 32.82 39.1 82.08 37.07 80.91 37.07 31.65" style="fill:#263238;"/></g><path d="M80.3,40.99c1.89-1.09,3.43-.21,3.43,1.98s-1.53,4.84-3.43,5.94-3.43,.21-3.43-1.98,1.53-4.84,3.43-5.94Z" style="fill:#549c44;"/><path d="M52.61,32.07l25.8-14.91c.72-.41,1.3-.08,1.3,.75v.07c0,.83-.58,1.84-1.3,2.25l-25.8,14.92c-.72,.41-1.3,.08-1.3-.75v-.09c0-.83,.58-1.84,1.3-2.25Z" style="opacity:.2;"/><g style="opacity:.2;"><path d="M48.52,43.81l33.96-19.61c.72-.41,1.3-.23,1.3,.42s-.58,1.51-1.3,1.92l-33.99,19.62c-.72,.41-1.29,.22-1.29-.43,0-.65,.59-1.52,1.31-1.93Z"/><path d="M48.52,48.49l33.96-19.61c.72-.41,1.3-.22,1.3,.42s-.58,1.51-1.3,1.92l-33.99,19.62c-.72,.41-1.29,.22-1.29-.43s.59-1.52,1.31-1.93Z"/><path d="M48.52,53.18l33.96-19.61c.72-.41,1.3-.23,1.3,.42s-.58,1.51-1.3,1.92l-33.99,19.62c-.72,.41-1.29,.22-1.29-.43,0-.65,.59-1.52,1.31-1.93Z"/></g><path d="M74.2,51.02c-.27,.14-.54,.22-.85,.22-.73,.01-.66-.74-.64-1.25,.01-.23-.31-.58-.48-.28-.44,.79-1,1.53-1.47,2.3-.29,.47-.84,1.54-1.54,1.39-.29-.06-.39-.37-.39-.76,.33-.66,.53-1.36,.45-2.12-.02-.22-.4-.49-.51-.19-.18,.45-.41,1.22-.44,1.95-.31,.59-.72,1.14-1.1,1.63-.24,.31-.44,.66-.71,.96-.06,.07-.18,.25-.28,.27-.24,.04-.21-.1-.25-.26-.04-.21,.06-.49,.12-.7h0s.01-.04,.02-.06h-.01c0-.24-.29-.58-.41-.29-.48,1.12-1.1,2.46-1.99,3.32-.04,.04-.09,.07-.13,.11,0-.13-.04-.27-.05-.41-.03-.31-.05-.63-.16-.92-.06-.15-.32-.38-.45-.18-.72,1.04-1.3,2.28-2.26,3.12-.07,.06-.46,.34-.48,.33-.15-.09,.09-.91,.12-1.04,.09-.37,.21-.73,.33-1.09,.12-.29,.22-.58,.27-.9,.05-.28-.44-.71-.52-.33-.04,.15-.17,.53-.31,.98-.46,1.02-1.28,2.31-1.91,3.23-.73,1.06-1.48,1.93-2.65,2.56-.3,.16-.87,.4-1.2,.16-.27-.2-.3-.66-.31-.96-.04-.78,.12-1.59,.32-2.35,1.05-.53,2.03-1.27,2.94-2.08,.81-.72,1.69-1.51,2.23-2.47,.3-.54,.48-1.44-.25-1.75-.5-.21-1.16,.14-1.59,.38-.59,.33-1.15,.77-1.62,1.26-.97,1.02-1.62,2.37-2.02,3.7-.06,.21-.15,.49-.23,.81-1.13,.55-2.36,.83-3.74,.63-.07-.01-.1,.15-.03,.16,1.33,.29,2.53,.1,3.66-.35-.33,1.42-.51,3.3,.81,3.66,1.41,.39,2.92-1.29,3.63-2.24,.55-.73,1-1.46,1.42-2.29,.03-.06,.08-.11,.12-.17-.04,.66,.13,1.14,.77,1.03,.68-.11,1.25-1.04,1.61-1.54,.34-.47,.65-.97,.96-1.46,.06,.59,.17,1.27,.73,1.15,.54-.11,1.03-1.1,1.3-1.5,.23-.34,.45-.7,.64-1.06,.03,.07,.07,.13,.13,.19,.47,.51,1.03-.03,1.33-.43,.43-.57,.92-1.17,1.32-1.8,.11,.27,.28,.5,.56,.63,.72,.34,1.41-.26,1.83-.79,.53-.67,.95-1.44,1.37-2.2,.06,.27,.2,.51,.5,.69,.53,.32,1.21,.2,1.71-.11,.22-.14,0-.62-.23-.5Zm-15.89,2.84c.34-.17,1.04-.46,1.08,.11,.02,.33-.28,.74-.46,.99-.55,.79-1.26,1.46-1.97,2.1-.78,.7-1.6,1.36-2.47,1.88,.62-2.11,1.81-4.07,3.83-5.09Z" style="opacity:.3;"/></g><g id="t"><g id="u"><polygon points="119.1 77.39 121.13 78.57 171.89 49.26 169.86 48.09 119.1 77.39" style="fill:#455a64;"/><polygon points="169.86 48.09 121.13 76.22 121.13 33.99 169.86 5.86 169.86 48.09" style="fill:#549c44;"/><g style="opacity:.8;"><polygon points="169.86 48.09 121.13 76.22 121.13 33.99 169.86 5.86 169.86 48.09" style="fill:#fff;"/></g><path d="M173.92,1.17l-54.81,31.65v49.26l54.82-31.65V1.17Zm-2.03,48.09l-50.75,29.3V33.99L171.89,4.69V49.26Z" style="fill:#37474f;"/><polygon points="171.89 49.26 169.86 48.09 169.86 5.86 171.89 4.69 171.89 49.26" style="fill:#263238;"/><polygon points="173.92 1.17 171.89 0 117.07 31.65 119.1 32.82 173.92 1.17" style="fill:#455a64;"/><polygon points="117.07 31.65 119.1 32.82 119.1 82.08 117.07 80.91 117.07 31.65" style="fill:#263238;"/></g><path d="M160.3,40.99c1.89-1.09,3.43-.21,3.43,1.98s-1.53,4.84-3.43,5.94-3.43,.21-3.43-1.98,1.53-4.84,3.43-5.94Z" style="fill:#549c44;"/><path d="M132.61,32.07l25.8-14.91c.72-.41,1.3-.08,1.3,.75v.07c0,.83-.58,1.84-1.3,2.25l-25.8,14.92c-.72,.41-1.3,.08-1.3-.75v-.09c0-.83,.58-1.84,1.3-2.25Z" style="opacity:.2;"/><g style="opacity:.2;"><path d="M128.53,43.81l33.96-19.61c.72-.41,1.3-.23,1.3,.42,0,.65-.58,1.51-1.3,1.92l-33.99,19.62c-.72,.41-1.29,.22-1.29-.43,0-.65,.59-1.52,1.31-1.93Z"/><path d="M128.53,48.49l33.96-19.61c.72-.41,1.3-.22,1.3,.42,0,.65-.58,1.51-1.3,1.92l-33.99,19.62c-.72,.41-1.29,.22-1.29-.43s.59-1.52,1.31-1.93Z"/><path d="M128.53,53.18l33.96-19.61c.72-.41,1.3-.23,1.3,.42,0,.65-.58,1.51-1.3,1.92l-33.99,19.62c-.72,.41-1.29,.22-1.29-.43,0-.65,.59-1.52,1.31-1.93Z"/></g><path d="M154.21,51.02c-.27,.14-.54,.22-.85,.22-.73,.01-.66-.74-.64-1.25,.01-.23-.31-.58-.48-.28-.44,.79-1,1.53-1.47,2.3-.29,.47-.84,1.54-1.54,1.39-.29-.06-.39-.37-.39-.76,.33-.66,.53-1.36,.45-2.12-.02-.22-.4-.49-.51-.19-.18,.45-.41,1.22-.44,1.95-.31,.59-.72,1.14-1.1,1.63-.24,.31-.44,.66-.71,.96-.06,.07-.18,.25-.28,.27-.24,.04-.22-.1-.25-.26-.04-.21,.06-.49,.12-.7h0s.01-.04,.02-.06h-.01c0-.24-.29-.58-.41-.29-.48,1.12-1.1,2.46-1.99,3.32-.04,.04-.09,.07-.13,.11,0-.13-.04-.27-.05-.41-.03-.31-.05-.63-.16-.92-.06-.15-.32-.38-.45-.18-.72,1.04-1.3,2.28-2.26,3.12-.07,.06-.46,.34-.48,.33-.15-.09,.09-.91,.12-1.04,.09-.37,.21-.73,.33-1.09,.12-.29,.22-.58,.27-.9,.05-.28-.44-.71-.52-.33-.04,.15-.17,.53-.31,.98-.46,1.02-1.28,2.31-1.91,3.23-.73,1.06-1.48,1.93-2.65,2.56-.3,.16-.87,.4-1.2,.16-.27-.2-.3-.66-.31-.96-.04-.78,.12-1.59,.32-2.35,1.05-.53,2.03-1.27,2.94-2.08,.81-.72,1.69-1.51,2.23-2.47,.3-.54,.48-1.44-.25-1.75-.5-.21-1.16,.14-1.59,.38-.59,.33-1.15,.77-1.62,1.26-.97,1.02-1.62,2.37-2.02,3.7-.06,.21-.15,.49-.23,.81-1.13,.55-2.36,.83-3.74,.63-.07-.01-.1,.15-.03,.16,1.33,.29,2.53,.1,3.66-.35-.33,1.42-.51,3.3,.81,3.66,1.41,.39,2.92-1.29,3.63-2.24,.55-.73,1-1.46,1.42-2.29,.03-.06,.08-.11,.12-.17-.04,.66,.13,1.14,.77,1.03,.68-.11,1.25-1.04,1.61-1.54,.34-.47,.65-.97,.96-1.46,.06,.59,.17,1.27,.73,1.15,.54-.11,1.03-1.1,1.3-1.5,.23-.34,.45-.7,.64-1.06,.03,.07,.07,.13,.13,.19,.47,.51,1.03-.03,1.33-.43,.43-.57,.92-1.17,1.32-1.8,.11,.27,.28,.5,.56,.63,.73,.34,1.41-.26,1.83-.79,.53-.67,.95-1.44,1.37-2.2,.06,.27,.19,.51,.5,.69,.53,.32,1.21,.2,1.71-.11,.22-.14,0-.62-.23-.5Zm-15.89,2.84c.34-.17,1.04-.46,1.08,.11,.02,.33-.28,.74-.46,.99-.55,.79-1.26,1.46-1.97,2.1-.78,.7-1.6,1.36-2.47,1.88,.62-2.11,1.81-4.07,3.83-5.09Z" style="opacity:.3;"/></g></g></g></svg>