<?xml version="1.0" encoding="UTF-8"?><svg id="a" xmlns="http://www.w3.org/2000/svg" viewBox="0 0 529.92 129.6"><defs><style>.d{fill-rule:evenodd;}.d,.e{fill:#d5006f;}.f{fill:#579b47;}</style></defs><g id="b"><g id="c"><path class="f" d="M23.76,81.6v48h59.76c37.92,0,54.72-21.6,54.72-52.56s-16.32-52.56-53.04-53.28v31.2c10.8,.72,17.28,6,17.28,22.08,0,17.04-7.44,23.52-19.92,23.52h-24v-18.96H23.76Z"/><polygon class="f" points="148.8 24.24 148.8 129.6 183.6 129.6 183.6 24.24 148.8 24.24"/><polygon class="e" points="289.44 24.24 259.92 70.32 230.4 24.24 199.68 24.24 199.68 129.6 233.52 129.6 233.52 81.36 250.8 108.24 269.04 108.24 286.32 81.6 286.32 129.6 320.16 129.6 320.16 24.24 289.44 24.24"/><polygon class="e" points="336.24 24.24 336.24 129.6 416.88 129.6 416.88 102 371.04 102 371.04 89.52 410.64 89.52 410.64 63.84 371.04 63.84 371.04 51.84 415.92 51.84 415.92 24.24 336.24 24.24"/><path class="e" d="M429.84,24.24v105.36h45.36c37.92,0,54.72-21.6,54.72-52.56s-16.8-52.8-54.72-52.8h-45.36Zm64.32,52.8c0,17.04-7.44,23.52-19.68,23.52h-9.84V53.52h9.84c12.24,0,19.68,6.24,19.68,23.52h0Z"/><polygon class="d" points="58.56 54.96 58.56 78.96 24 78.96 24 54.96 0 54.96 0 23.76 24 23.76 24 0 58.56 0 58.56 23.76 82.56 23.76 82.56 54.96 58.56 54.96"/></g></g></svg>