<?xml version="1.0" standalone="no"?>
<!DOCTYPE svg PUBLIC "-//W3C//DTD SVG 20010904//EN"
 "http://www.w3.org/TR/2001/REC-SVG-20010904/DTD/svg10.dtd">
<svg version="1.0" xmlns="http://www.w3.org/2000/svg"
 width="787.000000pt" height="787.000000pt" viewBox="0 0 787.000000 787.000000"
 preserveAspectRatio="xMidYMid meet">

<g transform="translate(0.000000,787.000000) scale(0.100000,-0.100000)"
fill="#6cb85b" stroke="none">
<path d="M125 7014 c-42 -21 -81 -61 -100 -99 -13 -30 -15 -300 -15 -2554 0
-2459 0 -2523 19 -2559 24 -47 56 -77 103 -97 34 -13 427 -15 3807 -15 2309 0
3779 4 3794 9 35 13 95 68 115 105 16 29 17 199 17 2556 l0 2525 -28 47 c-17
29 -44 57 -71 73 l-43 25 -3784 0 c-3406 0 -3787 -2 -3814 -16z m4940 -394
c89 -13 252 -63 330 -102 222 -111 414 -299 522 -513 74 -145 104 -250 123
-422 33 -303 -85 -650 -296 -875 l-41 -44 57 -89 c31 -50 110 -174 175 -278
93 -147 122 -186 135 -182 398 126 823 -113 925 -520 20 -81 23 -244 5 -320
-62 -268 -270 -483 -535 -550 -93 -24 -257 -24 -344 -1 -255 69 -444 252 -522
506 -31 100 -33 282 -5 380 24 81 76 190 116 240 16 21 30 40 30 43 0 6 -329
529 -340 541 -5 4 -39 -4 -77 -19 -212 -86 -442 -106 -668 -60 -103 21 -257
83 -353 141 l-75 46 -343 -343 -342 -342 24 -53 c115 -260 30 -586 -198 -762
-118 -91 -249 -135 -398 -135 -293 0 -540 189 -626 479 -27 90 -24 248 5 344
13 41 30 88 38 103 l14 28 -213 222 c-117 122 -220 221 -228 220 -8 -1 -53
-14 -100 -29 -74 -23 -103 -27 -220 -28 -149 -1 -228 16 -356 74 -179 81 -346
256 -420 438 -105 261 -76 542 81 778 114 170 286 291 490 344 111 29 289 29
400 0 294 -76 527 -309 606 -606 29 -110 29 -287 0 -399 -25 -96 -84 -222
-134 -286 l-35 -47 194 -203 c121 -128 200 -203 211 -203 10 1 52 14 93 30
136 50 367 36 480 -31 25 -15 27 -12 366 333 l341 347 -27 40 c-69 101 -135
263 -166 405 -26 121 -24 334 4 455 44 194 120 352 238 496 169 207 423 356
686 404 88 16 277 18 373 5z"/>
<path d="M4765 6244 c-11 -3 -40 -10 -65 -16 -274 -68 -502 -308 -560 -589
-24 -113 -25 -191 -5 -295 56 -293 255 -514 545 -605 64 -20 95 -24 215 -24
118 1 152 4 215 24 317 98 526 359 556 693 12 135 -32 314 -107 441 -74 124
-189 232 -318 297 -113 57 -173 71 -321 75 -74 2 -144 2 -155 -1z"/>
<path d="M1555 5520 c-165 -36 -290 -140 -345 -287 -73 -197 -1 -421 173 -536
274 -182 641 -20 698 307 36 209 -101 433 -306 499 -63 21 -168 29 -220 17z"/>
<path d="M2887 3806 c-82 -30 -143 -91 -173 -173 -18 -51 -17 -98 2 -164 29
-100 149 -189 254 -189 102 0 213 79 251 179 78 206 -128 420 -334 347z"/>
<path d="M6197 3756 c-64 -18 -135 -68 -180 -129 -97 -131 -87 -312 25 -433
167 -182 462 -132 566 95 37 79 37 192 0 271 -74 163 -239 242 -411 196z"/>
<path d="M2967 1305 c-22 -261 -152 -492 -387 -688 -47 -39 -92 -77 -100 -84
-12 -11 243 -13 1459 -13 l1474 0 -69 49 c-248 174 -411 448 -431 723 l-6 88
-967 0 -967 0 -6 -75z"/>
</g>
</svg>
