<?xml version="1.0" encoding="utf-8"?>
<!-- Generator: Adobe Illustrator 26.1.0, SVG Export Plug-In . SVG Version: 6.00 Build 0)  -->
<svg version="1.1" id="a" xmlns="http://www.w3.org/2000/svg" xmlns:xlink="http://www.w3.org/1999/xlink" x="0px" y="0px"
	 viewBox="0 0 150 150" style="enable-background:new 0 0 150 150;" xml:space="preserve">
<style type="text/css">
	.st0{fill:#579B47;}
	.st1{fill-rule:evenodd;clip-rule:evenodd;fill:#D5006F;}
</style>
<g id="b">
	<g id="c">
		<path class="st0" d="M25.8,86.3v50.8h63.3c40.1,0,57.9-22.8,57.9-55.6s-17.2-55.6-56.1-56.4v33.1c11.4,0.7,18.3,6.3,18.3,23.4
			c0,18-7.8,24.9-21.1,24.9H62.8V86.3C62.8,86.3,25.8,86.3,25.8,86.3z"/>
		<polygon class="st1" points="62.6,58.2 62.6,83.6 26,83.6 26,58.2 0.7,58.2 0.7,25.2 26,25.2 26,0 62.6,0 62.6,25.2 88,25.2 
			88,58.2 		"/>
	</g>
</g>
</svg>
